<?xml version="1.0" encoding="utf-8"?>
<!DOCTYPE svg PUBLIC "-//W3C//DTD SVG 20010904//EN" "http://www.w3.org/TR/2001/REC-SVG-20010904/DTD/svg10.dtd">
<svg version="1.0" xmlns="http://www.w3.org/2000/svg" width="50pt" height="50pt" viewBox="0 0 50 50" style="" preserveAspectRatio="xMidYMid meet">
<g fill="#409EFFFF" stroke="#409EFFFF">
<path d="M 30.681 13.462 C 28.486 15.657 20.000 30.689 20.000 32.382 C 20.000 34.755 22.915 37.000 25.996 37.000 C 28.538 37.000 29.404 36.032 33.925 28.131 C 36.716 23.254 39.000 18.336 39.000 17.203 C 39.000 12.841 33.690 10.453 30.681 13.462 "/></g>
<g fill="#409EFFFF" stroke="#409EFFFF">
<path d="M 13.284 12.651 C 12.615 12.922 9.758 17.180 6.936 22.112 C 3.113 28.792 1.960 31.705 2.417 33.525 C 3.114 36.304 7.372 37.880 9.905 36.298 C 12.162 34.887 20.921 19.924 20.964 17.405 C 21.027 13.728 16.911 11.180 13.284 12.651 "/></g>
<g fill="#35495EFF" stroke="#35495EFF">
<path d="M 38.408 29.500 C 36.888 31.820 36.891 32.184 38.447 34.559 C 40.802 38.154 46.045 37.699 47.414 33.780 C 49.397 28.106 41.714 24.454 38.408 29.500 "/></g>
</svg>
